<svg width="289" height="94" viewBox="0 0 289 94" fill="none" xmlns="http://www.w3.org/2000/svg">
<path d="M38.9152 19.0022C37.9538 42.152 10.0795 38.4028 10.0795 38.4028L0 48.1031V75H38.9152C42.117 49.8672 68.3598 55.8183 68.3598 55.8183L78 46.9847V19H38.9152V19.0022ZM54.2542 49.911C54.2542 51.0272 53.2928 51.9421 52.1182 51.9421H24.8834C23.7089 51.9421 22.7475 51.0272 22.7475 49.911V44.0934C22.7475 42.9772 23.7089 42.0623 24.8834 42.0623H52.1182C53.2928 42.0623 54.2542 42.9772 54.2542 44.0934V49.911Z" fill="#322618"/>
<path d="M3.51938 73.1973H2.88892V72.5613H3.06842V73.0162H3.51938V73.1973Z" fill="#CA9A46"/>
<path d="M3.06842 71.5014H2.88892V70.4414H3.06842V71.5014ZM3.06842 69.3793H2.88892V68.3193H3.06842V69.3793ZM3.06842 67.2571H2.88892V66.1972H3.06842V67.2571ZM3.06842 65.135H2.88892V64.075H3.06842V65.135ZM3.06842 63.0151H2.88892V61.9551H3.06842V63.0151ZM3.06842 60.8929H2.88892V59.833H3.06842V60.8929ZM3.06842 58.7708H2.88892V57.7108H3.06842V58.7708ZM3.06842 56.6486H2.88892V55.5887H3.06842V56.6486ZM3.06842 54.5265H2.88892V53.4665H3.06842V54.5265ZM3.06842 52.4066H2.88892V51.3466H3.06842V52.4066Z" fill="#CA9A46"/>
<path d="M3.06842 50.2844H2.88892V49.6993L3.30922 49.2996L3.43181 49.4321L3.06842 49.7788V50.2844Z" fill="#CA9A46"/>
<path d="M4.14993 48.7475L4.02734 48.615L4.74537 47.9304L4.86796 48.0629L4.14993 48.7475ZM5.58598 47.3806L5.46339 47.2481L6.18141 46.5635L6.304 46.696L5.58598 47.3806ZM7.02203 46.0115L6.89944 45.879L7.61746 45.1944L7.74005 45.3269L7.02203 46.0115ZM8.45589 44.6445L8.3333 44.512L9.05132 43.8275L9.17391 43.96L8.45589 44.6445ZM9.89193 43.2776L9.76934 43.1451L10.4874 42.4606L10.61 42.5931L9.89193 43.2776Z" fill="#CA9A46"/>
<path d="M11.3279 41.9086L11.2053 41.7761L11.63 41.3719L11.6738 41.3786C11.6738 41.3786 11.8642 41.4051 12.2057 41.4404L12.1882 41.6215C11.9365 41.5972 11.7657 41.5751 11.6913 41.5663L11.3301 41.9108L11.3279 41.9086Z" fill="#CA9A46"/>
<path d="M15.7498 41.7871C15.6403 41.7871 15.533 41.7871 15.428 41.7871V41.606C15.544 41.606 15.66 41.606 15.776 41.606C16.019 41.606 16.2642 41.6038 16.5072 41.5994V41.7804C16.2576 41.7849 15.9993 41.7871 15.7498 41.7871ZM14.3466 41.7628C13.981 41.7495 13.6154 41.7319 13.2651 41.7098L13.2761 41.5287C13.6241 41.5508 13.9875 41.5684 14.3509 41.5817L14.3444 41.7628H14.3466ZM17.5952 41.7473L17.5864 41.5662C17.9432 41.5508 18.3066 41.5309 18.6634 41.5044L18.6766 41.6855C18.3176 41.7098 17.9542 41.7319 17.5952 41.7473ZM19.7558 41.5949L19.7383 41.4139C20.0951 41.3785 20.4563 41.3388 20.811 41.2946L20.8328 41.4757C20.476 41.5199 20.1148 41.5618 19.7558 41.5972V41.5949ZM21.9055 41.3233L21.877 41.1445C22.2317 41.0893 22.5907 41.0274 22.9388 40.9612L22.9716 41.14C22.6191 41.2063 22.2601 41.2681 21.9033 41.3233H21.9055ZM24.0355 40.9236L23.9961 40.747C24.3463 40.6697 24.701 40.5858 25.0447 40.4974L25.0884 40.6741C24.7426 40.7624 24.3879 40.8463 24.0333 40.9236H24.0355ZM26.137 40.387L26.0867 40.2126C26.4326 40.111 26.7784 40.0028 27.1156 39.8902L27.1725 40.0624C26.8332 40.175 26.4851 40.2854 26.137 40.387ZM28.1926 39.7003L28.1291 39.5302C28.4662 39.4021 28.8033 39.2674 29.1295 39.1305L29.1996 39.2984C28.8712 39.4375 28.5319 39.5744 28.1926 39.7025V39.7003ZM30.189 38.8501L30.1124 38.6867C30.4386 38.5321 30.7626 38.3687 31.0734 38.2009L31.1566 38.3621C30.8414 38.5299 30.5152 38.6955 30.1869 38.8501H30.189ZM32.1045 37.8277L32.0126 37.6709C32.3234 37.4854 32.6299 37.2933 32.9254 37.0967L33.0239 37.2491C32.7262 37.4478 32.4175 37.6422 32.1045 37.8277ZM33.9149 36.6264L33.8076 36.4806C34.0966 36.2664 34.3812 36.0434 34.657 35.8159L34.7708 35.9573C34.4928 36.1869 34.206 36.4122 33.9149 36.6264ZM35.5917 35.2418L35.4713 35.1071C35.7362 34.8642 35.9945 34.6124 36.2441 34.3563L36.3732 34.4844C36.1215 34.7427 35.8588 34.9989 35.5939 35.2418H35.5917ZM37.1088 33.6828L36.9731 33.5635C37.2073 33.2941 37.4393 33.0137 37.6582 32.731L37.8005 32.8436C37.5772 33.1285 37.3452 33.4134 37.1088 33.685V33.6828ZM38.4463 31.9647L38.2996 31.8609C38.5032 31.5672 38.7024 31.2625 38.8907 30.9556L39.0439 31.0505C38.8535 31.3597 38.6543 31.6666 38.4485 31.9625L38.4463 31.9647ZM39.5868 30.1076L39.4292 30.0193C39.6 29.7057 39.7642 29.3833 39.9196 29.0565L40.0816 29.136C39.924 29.465 39.7576 29.7918 39.5868 30.1076ZM40.5281 28.14L40.3618 28.0694C40.4997 27.7403 40.631 27.4025 40.7558 27.0602L40.9244 27.122C40.7996 27.4643 40.6661 27.8066 40.5281 28.1378V28.14ZM41.2746 26.0908L41.1039 26.0356C41.2111 25.6955 41.3118 25.3444 41.4038 24.9955L41.5767 25.0418C41.4826 25.3952 41.3819 25.7463 41.2746 26.0908ZM41.835 23.9819L41.6599 23.9421C41.7365 23.5954 41.8088 23.2377 41.8744 22.8777L42.0518 22.9109C41.9861 23.2708 41.9138 23.633 41.835 23.9819Z" fill="#CA9A46"/>
<path d="M42.2269 21.8266L42.0496 21.8001C42.0758 21.6213 42.0999 21.4424 42.1218 21.2613L42.1327 21.1818H42.7523V21.3629H42.2904C42.2707 21.5175 42.2488 21.6721 42.2269 21.8244V21.8266Z" fill="#CA9A46"/>
<path d="M73.8901 21.3629H72.7781V21.1818H73.8901V21.3629ZM71.666 21.3629H70.554V21.1818H71.666V21.3629ZM69.4419 21.3629H68.3298V21.1818H69.4419V21.3629ZM67.2178 21.3629H66.1057V21.1818H67.2178V21.3629ZM64.9937 21.3629H63.8816V21.1818H64.9937V21.3629ZM62.7695 21.3629H61.6575V21.1818H62.7695V21.3629ZM60.5454 21.3629H59.4334V21.1818H60.5454V21.3629ZM58.3213 21.3629H57.2092V21.1818H58.3213V21.3629ZM56.095 21.3629H54.9829V21.1818H56.095V21.3629ZM53.8709 21.3629H52.7588V21.1818H53.8709V21.3629ZM51.6467 21.3629H50.5347V21.1818H51.6467V21.3629ZM49.4226 21.3629H48.3105V21.1818H49.4226V21.3629ZM47.1985 21.3629H46.0864V21.1818H47.1985V21.3629ZM44.9744 21.3629H43.8623V21.1818H44.9744V21.3629Z" fill="#CA9A46"/>
<path d="M75.6302 21.8178H75.4507V21.3629H75.002V21.1818H75.6302V21.8178Z" fill="#CA9A46"/>
<path d="M75.6304 44.0417H75.4509V42.9309H75.6304V44.0417ZM75.6304 41.8202H75.4509V40.7094H75.6304V41.8202ZM75.6304 39.5965H75.4509V38.4857H75.6304V39.5965ZM75.6304 37.375H75.4509V36.2642H75.6304V37.375ZM75.6304 35.1534H75.4509V34.0427H75.6304V35.1534ZM75.6304 32.9297H75.4509V31.819H75.6304V32.9297ZM75.6304 30.7082H75.4509V29.5975H75.6304V30.7082ZM75.6304 28.4845H75.4509V27.3738H75.6304V28.4845ZM75.6304 26.263H75.4509V25.1522H75.6304V26.263ZM75.6304 24.0393H75.4509V22.9285H75.6304V24.0393Z" fill="#CA9A46"/>
<path d="M75.2036 46.1329L75.0833 46.0004L75.451 45.6581V45.1547H75.6305V45.7376L75.2036 46.1329Z" fill="#CA9A46"/>
<path d="M69.1223 51.7552L68.9998 51.6205L69.7594 50.9183L69.882 51.053L69.1223 51.7552ZM70.6438 50.3507L70.5212 50.216L71.2808 49.5138L71.4034 49.6485L70.6438 50.3507ZM72.163 48.9441L72.0404 48.8094L72.8 48.1072L72.9226 48.2419L72.163 48.9441ZM73.6844 47.5396L73.5618 47.4049L74.3215 46.7027L74.444 46.8374L73.6844 47.5396Z" fill="#CA9A46"/>
<path d="M67.9293 52.8571L67.8855 52.8483C67.8855 52.8483 67.6972 52.8107 67.3579 52.7555L67.3864 52.5766C67.6359 52.6164 67.8023 52.6473 67.8767 52.6606L68.2423 52.3227L68.3649 52.4574L67.9336 52.8571H67.9293Z" fill="#CA9A46"/>
<path d="M36.5289 71.5279L36.3538 71.4904C36.4304 71.1371 36.5114 70.7859 36.5967 70.4459L36.7719 70.49C36.6865 70.8279 36.6055 71.179 36.5311 71.5301L36.5289 71.5279ZM37.0455 69.4588L36.8726 69.408C36.9711 69.0613 37.0762 68.7168 37.1856 68.3834L37.3564 68.4408C37.2491 68.772 37.144 69.1165 37.0455 69.4588ZM37.7044 67.4338L37.5359 67.3698C37.6606 67.0341 37.792 66.6985 37.9255 66.3716L38.0919 66.4423C37.9584 66.7669 37.827 67.1004 37.7044 67.4338ZM38.521 65.4685L38.359 65.3912C38.51 65.0666 38.6698 64.7442 38.8318 64.4306L38.9916 64.5145C38.8296 64.8259 38.672 65.1461 38.5232 65.4685H38.521ZM39.5017 63.5826L39.3463 63.4899C39.5258 63.1807 39.714 62.8738 39.9045 62.5756L40.0555 62.675C39.8651 62.9709 39.679 63.2757 39.5017 63.5804V63.5826ZM40.6531 61.7983L40.5065 61.6923C40.7144 61.4031 40.9312 61.116 41.1523 60.8377L41.2924 60.9504C41.0735 61.2264 40.8589 61.5113 40.6531 61.7983ZM41.9754 60.1377L41.8418 60.0163C42.0761 59.7491 42.3212 59.4863 42.5708 59.2323L42.7 59.3604C42.4548 59.6122 42.2118 59.8727 41.9776 60.1377H41.9754ZM43.4574 58.6206L43.337 58.4859C43.5975 58.2452 43.8689 58.009 44.1404 57.7815L44.2542 57.9228C43.9828 58.1481 43.7157 58.3822 43.4574 58.6206ZM45.0861 57.267L44.9788 57.1212C45.2612 56.9092 45.5545 56.7017 45.8501 56.5029L45.9508 56.6531C45.6574 56.8496 45.3685 57.055 45.0861 57.2648V57.267ZM46.8439 56.0856L46.752 55.9288C47.0519 55.7477 47.3649 55.5688 47.678 55.3988L47.7633 55.56C47.4503 55.7278 47.1416 55.9045 46.8439 56.0856ZM48.7068 55.0786L48.6302 54.9152C48.9476 54.7628 49.2738 54.6149 49.6022 54.4735L49.6722 54.6414C49.3482 54.7805 49.0243 54.9284 48.709 55.0786H48.7068ZM50.6529 54.2461L50.5895 54.0761C50.9178 53.9524 51.2549 53.8309 51.5943 53.7183L51.6512 53.8906C51.314 54.0032 50.9791 54.1224 50.6529 54.2439V54.2461ZM52.6603 53.577L52.61 53.4025C52.9471 53.3054 53.2952 53.2126 53.6389 53.1265L53.6826 53.3032C53.3411 53.3893 52.9953 53.482 52.6603 53.5792V53.577ZM54.7159 53.0647L54.6787 52.888C55.0224 52.8151 55.3748 52.7467 55.7251 52.6848L55.7557 52.8637C55.4077 52.9255 55.0574 52.9918 54.7159 53.0647ZM56.8021 52.6981L56.778 52.5192C57.1261 52.4706 57.4807 52.4243 57.8354 52.3867L57.8551 52.5678C57.5048 52.6076 57.1502 52.6517 56.8043 52.7003L56.8021 52.6981ZM66.3094 52.6098C65.9679 52.5678 65.6132 52.5325 65.2564 52.4994L65.2717 52.3183C65.6307 52.3514 65.9854 52.3889 66.3312 52.4287L66.3094 52.6098ZM58.908 52.464L58.8927 52.2829C59.243 52.2542 59.5998 52.2322 59.9544 52.2145L59.9632 52.3956C59.6107 52.4132 59.2539 52.4375 58.9058 52.464H58.908ZM64.2013 52.4199C63.8532 52.3978 63.4964 52.3823 63.1439 52.3691L63.1505 52.188C63.5051 52.199 63.8619 52.2167 64.2122 52.2388L64.2013 52.4199ZM61.0249 52.358L61.0205 52.1769C61.3708 52.1703 61.7341 52.1659 62.0844 52.1681V52.3492C61.7341 52.3492 61.3729 52.3492 61.0227 52.358H61.0249Z" fill="#CA9A46"/>
<path d="M36.2113 73.1974H35.5962V73.0163H36.0603C36.0866 72.8617 36.1128 72.7071 36.1413 72.5547L36.3186 72.5879C36.2858 72.7645 36.2551 72.9434 36.2245 73.1223L36.2113 73.1974Z" fill="#CA9A46"/>
<path d="M34.4884 73.1974H33.3829V73.0163H34.4884V73.1974ZM32.2774 73.1974H31.1719V73.0163H32.2774V73.1974ZM30.0643 73.1974H28.9588V73.0163H30.0643V73.1974ZM27.8533 73.1974H26.7478V73.0163H27.8533V73.1974ZM25.6401 73.1974H24.5346V73.0163H25.6401V73.1974ZM23.4291 73.1974H22.3236V73.0163H23.4291V73.1974ZM21.2159 73.1974H20.1104V73.0163H21.2159V73.1974ZM19.0027 73.1974H17.8972V73.0163H19.0027V73.1974ZM16.7918 73.1974H15.6863V73.0163H16.7918V73.1974ZM14.5786 73.1974H13.4731V73.0163H14.5786V73.1974ZM12.3676 73.1974H11.2621V73.0163H12.3676V73.1974ZM10.1544 73.1974H9.04892V73.0163H10.1544V73.1974ZM7.94343 73.1974H6.83793V73.0163H7.94343V73.1974ZM5.73025 73.1974H4.62476V73.0163H5.73025V73.1974Z" fill="#CA9A46"/>
<path d="M89.2 59.04V20H99.44V68H98.16C92.784 68 89.2 64.416 89.2 59.04ZM134.626 54.624H112.674C113.314 58.08 115.426 60.32 119.458 60.32C122.722 60.32 124.642 59.104 127.586 56.416L133.922 62.048C129.314 67.232 124.45 68.96 119.202 68.96C107.426 68.96 101.858 62.112 101.858 51.936C101.858 41.76 107.682 35.04 117.986 35.04C130.21 35.04 134.626 42.272 134.626 54.624ZM112.802 48.224H124.642C123.746 45.28 121.89 43.68 118.69 43.68C115.362 43.68 113.57 45.408 112.802 48.224ZM161.843 68V64.8C159.987 67.552 157.299 68.96 153.779 68.96C144.947 68.96 138.483 62.304 138.483 52.448C138.483 42.528 145.01 36 153.971 36H161.843V20H172.083V68H161.843ZM149.043 52.384C149.043 57.12 151.667 60.32 155.507 60.32C159.411 60.32 161.843 57.12 161.843 52.32V44.32H155.507C151.667 44.32 149.043 47.584 149.043 52.384ZM200.593 68V64.8C198.737 67.552 196.049 68.96 192.529 68.96C183.697 68.96 177.233 62.304 177.233 52.448C177.233 42.528 183.76 36 192.721 36H200.593V20H210.833V68H200.593ZM187.793 52.384C187.793 57.12 190.417 60.32 194.257 60.32C198.161 60.32 200.593 57.12 200.593 52.32V44.32H194.257C190.417 44.32 187.793 47.584 187.793 52.384ZM239.343 68V64.8C237.487 67.552 234.799 68.96 231.279 68.96C222.447 68.96 215.983 62.304 215.983 52.448C215.983 42.528 222.51 36 231.471 36H249.583V68H239.343ZM226.543 52.384C226.543 57.12 229.167 60.32 233.007 60.32C236.911 60.32 239.343 57.12 239.343 52.32V44.32H233.007C229.167 44.32 226.543 47.584 226.543 52.384ZM270.861 44.32C267.277 44.32 265.613 47.008 265.613 50.976V68H255.373V50.976C255.373 43.68 258.637 36 269.773 36H277.197V44.32H270.861Z" fill="#1C1412"/>
</svg>
